<?xml version="1.0" standalone="no"?>
<!DOCTYPE svg PUBLIC "-//W3C//DTD SVG 20010904//EN"
 "http://www.w3.org/TR/2001/REC-SVG-20010904/DTD/svg10.dtd">
<svg version="1.0" xmlns="http://www.w3.org/2000/svg"
 width="500.000000pt" height="500.000000pt" viewBox="0 0 500.000000 500.000000"
 preserveAspectRatio="xMidYMid meet">

<g transform="translate(0.000000,500.000000) scale(0.100000,-0.100000)"
fill="#000000" stroke="none">
<path d="M2655 3828 c18 -35 54 -111 80 -170 43 -99 65 -125 65 -79 0 30 -111
265 -137 289 -40 37 -42 25 -8 -40z"/>
<path d="M3040 3315 c-36 -38 -33 -90 8 -126 41 -37 73 -37 114 0 64 57 29
151 -57 151 -31 0 -47 -6 -65 -25z"/>
<path d="M2920 3256 c0 -13 165 -362 176 -373 25 -26 21 -11 -26 100 -94 221
-119 272 -134 275 -9 2 -16 1 -16 -2z"/>
<path d="M2634 3058 c-45 -34 -114 -104 -114 -116 0 -5 -10 -18 -22 -30 -40
-37 -43 -46 -43 -132 0 -68 -5 -93 -22 -126 -28 -52 -74 -99 -123 -124 -46
-23 -60 -68 -67 -211 -6 -108 6 -194 42 -301 27 -79 52 -108 95 -108 40 0 827
361 868 397 17 17 32 40 32 51 0 21 -112 270 -243 544 l-66 136 -68 11 c-37 7
-105 18 -149 25 l-81 13 -39 -29z m306 -773 c7 -8 10 -25 6 -39 -5 -19 -32
-36 -139 -85 -136 -63 -164 -70 -185 -49 -18 18 -15 56 6 68 52 32 251 118
273 119 15 1 32 -6 39 -14z"/>
<path d="M1845 2666 c-49 -21 -68 -51 -68 -101 0 -53 26 -88 79 -105 41 -14
70 -6 106 28 55 51 41 144 -27 176 -40 19 -51 19 -90 2z"/>
<path d="M2853 1615 c-36 -15 -60 -48 -63 -85 -5 -62 1 -83 34 -116 29 -29 41
-34 83 -34 64 0 122 39 123 83 0 24 -52 23 -75 -3 -38 -42 -105 -12 -105 46 0
23 42 64 65 64 7 0 24 -9 38 -20 29 -23 77 -27 77 -6 0 25 -41 65 -78 76 -47
13 -60 12 -99 -5z"/>
<path d="M1710 1500 l0 -120 30 0 30 0 0 120 0 120 -30 0 -30 0 0 -120z"/>
<path d="M1860 1500 l0 -120 35 0 35 0 0 62 0 63 23 -32 c28 -42 55 -42 89 -1
l27 33 1 -62 0 -63 35 0 35 0 0 120 0 120 -30 0 c-24 0 -36 -9 -67 -55 -21
-30 -41 -54 -44 -55 -3 0 -23 25 -44 55 -31 45 -43 55 -66 55 l-29 0 0 -120z"/>
<path d="M2230 1500 l0 -120 30 0 c27 0 30 3 30 30 0 25 4 30 25 30 98 0 148
88 86 151 -27 27 -35 29 -100 29 l-71 0 0 -120z m123 49 c16 -26 1 -49 -33
-49 -26 0 -30 3 -30 28 0 16 3 32 7 36 12 11 45 2 56 -15z"/>
<path d="M2561 1598 c-5 -13 -25 -65 -45 -117 -20 -51 -36 -95 -36 -97 0 -2
15 -4 34 -4 26 0 36 5 41 20 5 16 15 20 50 20 35 0 45 -4 50 -20 5 -15 15 -20
42 -20 24 0 34 4 30 13 -3 6 -24 60 -47 120 l-41 107 -35 0 c-27 0 -36 -5 -43
-22z m69 -125 c0 -7 -11 -13 -25 -13 -28 0 -31 15 -13 56 l12 27 13 -29 c7
-16 12 -35 13 -41z"/>
<path d="M3100 1590 c0 -28 3 -30 35 -30 l35 0 0 -90 0 -90 35 0 35 0 0 90 0
90 35 0 c32 0 35 2 35 30 l0 30 -105 0 -105 0 0 -30z"/>
<path d="M2330 1143 c-31 -12 -50 -37 -50 -68 0 -37 22 -60 65 -71 37 -8 55
-22 55 -40 0 -19 -49 -18 -56 1 -9 22 -64 20 -64 -2 1 -61 116 -88 165 -38 46
45 24 94 -56 120 -36 12 -49 21 -47 33 4 23 32 26 51 7 18 -17 67 -21 67 -4 0
45 -76 82 -130 62z"/>
<path d="M2763 1135 c-38 -16 -73 -68 -73 -108 0 -45 26 -94 59 -111 38 -20
103 -20 141 -1 85 44 75 183 -15 221 -43 17 -71 17 -112 -1z m105 -73 c17 -22
15 -62 -5 -84 -34 -38 -103 -11 -103 42 0 61 70 89 108 42z"/>
<path d="M1760 1020 l0 -120 29 0 c27 0 30 3 33 38 3 35 5 37 41 40 32 3 37 7
37 28 0 21 -4 24 -40 24 -36 0 -40 3 -40 25 0 23 4 25 45 25 43 0 45 1 45 30
l0 30 -75 0 -75 0 0 -120z"/>
<path d="M1990 1049 c0 -87 1 -92 29 -120 23 -23 38 -29 71 -29 84 0 110 38
110 160 l0 80 -35 0 -34 0 -3 -87 c-3 -88 -3 -88 -30 -91 -36 -4 -48 25 -48
114 l0 64 -30 0 -30 0 0 -91z"/>
<path d="M2550 1020 l0 -120 30 0 30 0 0 120 0 120 -30 0 -30 0 0 -120z"/>
<path d="M3030 1020 l0 -120 30 0 30 0 0 60 c0 33 3 60 8 60 4 0 27 -27 50
-60 33 -45 50 -60 68 -60 l24 0 0 120 0 120 -30 0 c-29 0 -29 -1 -32 -61 l-3
-61 -44 61 c-36 50 -50 61 -73 61 l-28 0 0 -120z"/>
</g>
</svg>
